<svg version="1.2" xmlns="http://www.w3.org/2000/svg" viewBox="0 0 1548 250" width="1548" height="250">
	<title>bukalapak-logo-primary-svg</title>
	<style>
		.s0 { fill: #e31e52 } 
		.s1 { fill: #303330 } 
	</style>
	<path id="Layer" fill-rule="evenodd" class="s0" d="m104 152.6c-3 5.3-7.8 9.3-13.5 11.1l-13.4 4.4c-5.8 1.8-12 1.5-17.5-1.1-5.5-2.5-9.8-7.1-12.1-12.7l-45.7-111.3c-1.3-3.1-1.9-6.3-1.8-9.6 0.1-3.3 0.8-6.6 2.2-9.6 1.4-2.9 3.4-5.6 5.9-7.8 2.5-2.2 5.3-3.8 8.5-4.8l30.7-10c3.1-1 6.4-1.4 9.7-1.1 3.3 0.3 6.4 1.3 9.3 2.9 2.9 1.6 5.4 3.8 7.4 6.4 2 2.7 3.4 5.7 4.2 8.9l28.4 116.9c1.4 5.9 0.6 12.1-2.3 17.4zm17.8 89.5c3.3-2.8 6-6.2 7.9-10.1 2-3.8 3.2-8 3.5-12.3 0.3-4.3-0.2-8.7-1.6-12.8-2-6.2-5.8-11.6-10.9-15.6-5.1-4-11.2-6.4-17.7-6.9-6.5-0.5-12.9 0.9-18.6 4.1-5.7 3.2-10.2 8-13.2 13.7-2.9 5.8-4.1 12.4-3.3 18.8 0.7 6.5 3.4 12.5 7.6 17.5 4.2 4.9 9.8 8.5 16 10.3 6.3 1.7 12.9 1.6 19.1-0.4 4.1-1.3 7.9-3.5 11.2-6.3zm56.9-23.7c42.1-13.7 76.1-62.3 59.2-114.4-16.9-52.1-72.9-71.5-115-57.8-4.8 1.5-8.7 4.8-11.2 9.2-2.4 4.3-3.1 9.4-1.9 14.2l4.3 17.6c0.6 2.6 1.8 5.1 3.5 7.2 1.6 2.2 3.7 4 6 5.3 2.4 1.3 5 2.1 7.7 2.4 2.7 0.2 5.4-0.1 8-0.9l1.7-0.5c4.2-1.5 8.6-2.2 13-1.9 4.4 0.2 8.7 1.4 12.7 3.3 4 2 7.5 4.7 10.4 8.1 2.9 3.3 5.1 7.2 6.5 11.4 1.3 4.2 1.8 8.7 1.5 13.1-0.4 4.4-1.7 8.7-3.7 12.6-2.1 3.9-4.9 7.4-8.3 10.2-3.5 2.8-7.4 4.9-11.6 6.1l-1.8 0.6c-2.5 0.8-4.9 2.2-6.9 4-2.1 1.8-3.7 4-4.8 6.5-1.1 2.4-1.8 5.1-1.8 7.8-0.1 2.7 0.4 5.4 1.4 7.9l6.8 16.7c1.9 4.6 5.4 8.3 10 10.4 4.5 2.1 9.6 2.4 14.3 0.9z"/>
	<path id="Layer" fill-rule="evenodd" class="s1" d="m368.7 84.5c22.3-12 49.9-9.8 68.6 8.9 17.9 18 18.3 43.8 18.3 54 0 28.8-13.3 53-38.6 60.5-33.6 10.3-85.2 1.2-85.2 1.2-1.1-0.1-2.2-0.7-2.9-1.5-0.8-0.9-1.2-2-1.2-3.1v-159.1c0-1 0.4-2 1.1-2.7 0.7-0.7 1.6-1.1 2.7-1.1h31.5c1 0 2 0.4 2.7 1.1 0.7 0.7 1.1 1.7 1.1 2.7v38q0 0.3 0.2 0.6 0.1 0.3 0.4 0.5 0.3 0.1 0.6 0.1 0.4 0 0.7-0.1zm-0.4 91.2c9.7 2.7 29.1 3.7 40.2-7.8 7.6-7.4 16.5-31.3-1.4-49.2-7.5-7.7-19.8-11.9-36.9-4.7-1.1 0.5-1.9 1.3-2.5 2.2-0.6 1-0.9 2.1-0.9 3.2v54.1c0 0.5 0.1 0.9 0.4 1.3 0.3 0.4 0.7 0.7 1.1 0.9zm548.1-132.9c0.7-0.7 1.7-1.1 2.7-1.1h31.8c1 0 2 0.4 2.7 1.1 0.7 0.7 1.1 1.7 1.1 2.7v164.5c0 0.7-0.3 1.3-0.8 1.8-0.4 0.5-1.1 0.7-1.7 0.7h-34.4c-0.6 0-1.3-0.2-1.7-0.7-0.5-0.5-0.8-1.1-0.8-1.8v-164.5c0-1 0.4-2 1.1-2.7zm-306.1 141.7c0.4 0.5 0.5 1.2 0.4 1.8l-3.1 22.8c0 0.6-0.3 1.1-0.7 1.5-0.4 0.4-0.9 0.7-1.5 0.8h-0.1c-3.6 0.3-15.7 1.5-24.7-1.4-5.9-1.9-11.2-5.6-14.8-10.7q-0.2-0.2-0.4-0.3-0.2-0.2-0.5-0.2-0.3-0.1-0.5 0-0.3 0.1-0.5 0.2c-15.2 10.9-34.1 16-50 13.1-33.7-6.2-37-39.8-37-50.2 0 0 0.1-66.5 0.1-80.3 0-0.9 0.4-1.7 1-2.3 0.6-0.6 1.4-1 2.3-1h32.3c0.9 0 1.7 0.4 2.3 1 0.7 0.6 1 1.5 1 2.3 0 4.8-0.2 68.6-0.2 69.1-0.5 13.9 5.5 26 19.8 28.4 10.1 1.7 23-1.6 26.1-12.6q0-0.2 0-0.4v-84.5c0-0.8 0.3-1.7 1-2.3 0.6-0.6 1.4-1 2.3-1h32.4c0.8 0 1.7 0.4 2.3 1 0.6 0.6 1 1.5 1 2.3v91.1c0.2 4.3 1.1 7 2.8 8.5 1.6 1.2 3.4 2 5.3 2.2 0.7 0.2 1.2 0.5 1.6 1.1zm637.4-3.9c-7.4 14.3-20.2 26.1-35.6 30.5-14.5 4.2-31.4 1.5-42.8-8.4q-0.3-0.2-0.6-0.3-0.4 0-0.7 0.1-0.4 0.2-0.6 0.5-0.1 0.3-0.1 0.7 0 6.8 0 13.6c0 9.1 0 18.1 0 27.2 0.1 0.7 0.1 1.4-0.1 2.1-0.2 0.7-0.6 1.4-1.1 1.9-0.5 0.5-1.2 0.8-1.9 1-0.7 0.2-1.4 0.2-2.1 0h-28.5c-1.4 0.1-2.8-0.2-4-1.1q-0.7-0.9-1-2-0.3-1.1-0.2-2.3c0-0.2 0-157.5 0-157.8 0-3.9 0-6.8 4.8-7.3 7.4-0.8 14.8-1.6 22.2-2.2 13-1.3 26.1-2.2 39.1-2.2 31.8-0.1 42.2 12.4 46 17.1l0.3 0.3 0.2 0.3c9.4 11.2 14 26.6 15.2 41.5 1.2 16-1.2 32.5-8.5 46.8zm-31.2-27.9c1.6-6.3 7.6-43.8-25.7-44.7-7.7-0.3-17.8 1.1-21.5 2.9-1.8 0.8-2 2.1-2 4v48.7c0 8.2 13.9 13.1 22.6 12.6 17.5-1 23.3-10.8 26.5-23.5zm-506.1-12c-2.8 3.9-2.8 5.3-0.2 8.9l45.8 59q0.4 0.6 0.5 1.3 0 0.7-0.3 1.3-0.3 0.7-0.9 1.1c-0.4 0.2-0.9 0.3-1.3 0.3h-37.8q-0.6 0-1.2-0.3-0.5-0.3-0.9-0.8l-39.4-51.2c-0.3-0.4-0.6-0.6-1-0.7q-0.6-0.2-1.1 0-0.6 0.2-1 0.7-0.3 0.5-0.4 1.1v48.7c0 0.7-0.2 1.3-0.7 1.8-0.5 0.4-1.1 0.7-1.8 0.7h-34.1c-0.6 0-1.3-0.3-1.7-0.7-0.5-0.5-0.8-1.1-0.8-1.8v-164.6q0-0.8 0.3-1.5 0.3-0.7 0.8-1.2 0.6-0.6 1.2-0.9 0.8-0.3 1.5-0.2h31.5c1 0 2 0.3 2.7 1.1 0.7 0.7 1.1 1.6 1.1 2.6v86.5q0 0.5 0.4 1 0.3 0.4 0.8 0.6 0.5 0.1 1 0 0.5-0.2 0.9-0.6c7.6-10.4 33.8-47.1 38-53.1q0.3-0.5 0.9-0.8 0.5-0.3 1.2-0.3h36.8c0.5 0 0.9 0.1 1.3 0.4q0.6 0.3 0.9 1 0.4 0.7 0.3 1.4-0.1 0.7-0.5 1.3zm836.2 67.9q0.4 0.5 0.5 1.3 0 0.7-0.3 1.3-0.3 0.6-0.9 1-0.6 0.4-1.3 0.4h-37.8q-0.6 0-1.2-0.3-0.5-0.3-0.9-0.9l-39.4-51.2q-0.4-0.4-1-0.6-0.5-0.2-1.1 0-0.6 0.2-1 0.6-0.3 0.5-0.4 1.1v48.7c0 0.7-0.2 1.3-0.7 1.8-0.5 0.5-1.1 0.7-1.8 0.7h-34c-0.7 0-1.4-0.2-1.8-0.7-0.5-0.5-0.8-1.1-0.8-1.8v-164.6q0-0.8 0.3-1.5 0.3-0.7 0.8-1.2 0.6-0.5 1.3-0.8 0.6-0.3 1.4-0.3h31.6q0.7 0 1.4 0.3 0.7 0.3 1.3 0.8 0.5 0.5 0.8 1.2 0.3 0.7 0.3 1.5v86.5q0 0.5 0.3 0.9 0.3 0.5 0.9 0.7 0.5 0.1 1 0 0.5-0.2 0.9-0.6c7.6-10.4 33.8-47.2 38-53.2q0.3-0.5 0.9-0.8 0.5-0.3 1.1-0.3h36.9q0.7 0.1 1.4 0.4 0.6 0.4 0.9 1.1 0.3 0.6 0.2 1.3 0 0.7-0.5 1.3l-42.8 58c-2.8 3.9-2.8 5.2-0.2 8.9zm-655.3-25.2l0.4 0.1c0.7 0.1 1.2 0.5 1.6 1 0.3 0.6 0.5 1.2 0.4 1.9l-3.2 22.7c0 0.6-0.3 1.1-0.7 1.5-0.4 0.4-0.9 0.7-1.5 0.8h-0.6c-4.3 0.5-17.8 1.9-27.5-2.7-4.6-2-8.6-5.3-11.5-9.4q-0.2-0.2-0.4-0.3-0.2-0.2-0.4-0.2-0.3-0.1-0.5 0-0.3 0-0.5 0.2c-4.9 3.5-26.4 17.4-50.7 12.9-7.1-1.2-13.7-4.3-19.3-8.9-18.1-15.5-19.3-48.9-1.5-65.6 4.5-3.7 9.5-6.7 14.9-8.8 23-10 54.3-8.5 54.3-8.5 0.3-6-0.8-13.6-15.7-14.9-11.9-1.4-34.1 2.5-40.6 3.7q-0.9 0.1-1.4 0.2-0.7 0.2-1.4 0-0.8-0.2-1.4-0.6-0.6-0.5-1-1.1-0.4-0.7-0.6-1.4l-7.1-21.3q-0.1-0.7 0-1.5 0.2-0.7 0.6-1.3 0.5-0.7 1.1-1.1 0.7-0.4 1.4-0.5c6.8-1 25.8-3.8 34-4.6 42.1-5 54.9 8.8 59.7 13.9q0.4 0.5 0.8 0.9c10.2 11.4 10.9 27.6 10.8 42.2l-0.3 38c0 10.9 3.7 11.8 7.8 12.7zm-48.9-9.4c1.3-1.3 2.1-3.1 2.1-5v-22.1c0-2.3-6.3-1.6-7.8-1.5q-0.3 0.1-0.4 0.1c-10.5 1.4-18 3.4-22.8 5.9-6.1 3.2-9.2 8.1-9.2 14.5 0 2.2 0.4 4.4 1.3 6.4 0.9 2 2.2 3.8 3.9 5.2 12.8 9.1 28.8 0.9 32.9-3.5zm264.1 10.5c0.4 0.5 0.6 1.2 0.5 1.9l-3.2 22.7c-0.1 0.6-0.4 1.1-0.8 1.5-0.4 0.4-0.9 0.7-1.5 0.7l-0.6 0.1c-4.3 0.5-17.8 1.9-27.5-2.7-4.6-2.1-8.6-5.3-11.5-9.4q-0.2-0.2-0.4-0.4-0.2-0.1-0.4-0.2-0.3 0-0.5 0-0.2 0.1-0.4 0.2c-5 3.6-26.5 17.5-50.8 13-7.1-1.3-13.7-4.3-19.3-8.9-18.1-15.6-19.3-49-1.5-65.6 4.4-3.7 9.5-6.7 14.9-8.8 23-10 54.2-8.5 54.2-8.5 0.4-6-0.7-13.6-15.6-15-12.7-1.3-37 3.1-41.7 4h-0.3q-0.7 0.2-1.5 0-0.7-0.2-1.3-0.6-0.6-0.5-1-1.1-0.4-0.7-0.6-1.4l-7.1-21.3c-0.2-1 0.1-2 0.6-2.8 0.6-0.8 1.5-1.4 2.5-1.6 6.8-1 25.8-3.8 34-4.6 42-5 54.9 8.8 59.6 13.9q0.5 0.5 0.8 0.9c10.2 11.4 11 27.6 10.9 42.2l-0.3 38c0 10.9 3.7 11.8 7.8 12.7l0.4 0.1c0.6 0.1 1.2 0.5 1.6 1zm-48.8-37.6c0-2.3-6.2-1.6-7.8-1.5q-0.3 0.1-0.3 0.1c-10.6 1.4-18.1 3.4-22.9 5.9q-9.1 4.8-9.1 14.5c-0.1 2.2 0.3 4.4 1.2 6.4 0.9 2 2.3 3.8 4 5.2 12.7 9.1 28.7 0.9 32.9-3.5 1.3-1.3 2-3.1 2-5zm340.8 36.5q0.2 0 0.4 0.1c0.7 0.1 1.2 0.5 1.6 1 0.4 0.6 0.5 1.2 0.4 1.8l-3.1 22.8c-0.1 0.6-0.3 1.1-0.7 1.5-0.4 0.4-0.9 0.7-1.5 0.7q-0.3 0.1-0.6 0.1c-4.4 0.5-17.9 1.9-27.6-2.7-4.6-2.1-8.6-5.3-11.5-9.4q-0.1-0.2-0.3-0.4-0.2-0.1-0.5-0.2-0.2 0-0.4 0-0.3 0.1-0.5 0.2c-4.9 3.6-26.5 17.5-50.8 13-7-1.3-13.7-4.3-19.2-8.9-18.1-15.6-19.3-49-1.5-65.6 4.4-3.7 9.4-6.7 14.8-8.8 23-10 54.3-8.5 54.3-8.5 0.3-6-0.8-13.6-15.7-15-12.7-1.3-37.1 3.1-41.7 4h-0.2q-0.8 0.2-1.5 0-0.7-0.2-1.4-0.6-0.6-0.5-1-1.1-0.4-0.7-0.5-1.4l-7.2-21.3c-0.1-1 0.1-2 0.7-2.8 0.6-0.8 1.4-1.4 2.4-1.6 6.8-1.1 25.8-3.8 34-4.6 42.1-5 55 8.8 59.7 13.9q0.4 0.5 0.8 0.9c10.2 11.4 10.9 27.6 10.8 42.2l-0.3 38c0 10.9 3.7 11.8 7.8 12.7zm-48.8-9.4c1.3-1.3 2-3.1 2.1-5v-22.1c0-2.3-6.3-1.6-7.9-1.5q-0.2 0.1-0.3 0.1c-10.6 1.4-18.1 3.4-22.8 5.9q-9.2 4.8-9.2 14.5c-0.1 2.2 0.4 4.4 1.3 6.4 0.9 2 2.2 3.8 3.9 5.1 12.8 9.2 28.8 1 32.9-3.4z"/>
</svg>