<?xml version="1.0" encoding="UTF-8"?>
<!-- Created with Inkscape by Vulphere (http://www.inkscape.org/ and https://en.wikipedia.org/wiki/User:Vulphere) -->
<svg width="241.6324" height="45.99132" version="1.1" viewBox="0 0 241.6324 45.99132" xmlns="http://www.w3.org/2000/svg">
<title>Comifuro logo</title>
<desc>Indonesian comic and doujin convention</desc>
 <g transform="translate(-2.235385 234.5596)">
  <g transform="matrix(.2598619 0 0 .2598619 1.654494 -236.7351)">
   <path d="m46.48643 182.9524c-10.3297-2.24734-22.06335-8.67062-29.50337-17.20594-16.76145-19.22905-19.74916-52.75683-6.311556-74.0116 15.86973-25.10177 50.10362-33.88904 78.00519-20.29504 7.072241 3.44569 15.40793 10.40698 15.40793 12.86746 0 2.07036-9.980949 12.13179-12.03144 12.12847-0.807705-1e-3 -4.085246-1.7799-7.283423-3.95243-9.478377-6.43865-15.68544-8.31814-25.68513-7.7774-11.65393 0.6302-18.33171 3.752-26.95845 12.60285-9.49455 9.741205-13.17022 20.89282-11.06767 33.57822 2.178593 13.1442 10.94935 24.53288 23.55364 30.584 6.221573 2.98688 7.887892 3.34744 15.47248 3.34789 10.7375 6.4e-4 14.90718-1.22679 23.30872-6.86141 3.706221-2.48563 7.757358-4.51933 9.002526-4.51933 2.846824 0 11.68876 8.78048 11.68876 11.60752 0 2.37642-8.236357 9.44973-15 12.88187-12.23786 6.20997-28.39226 8.11554-42.5982 5.02488zm225.3482 0.40563c-1.63444-0.95198-1.75-4.80259-1.75-58.3146 0-66.05102-0.89123-60.6053 9.91845-60.6053 7.43136 0 9.9937 2.10209 10.04828 8.24339 0.0111 1.2478-1.08761 3.195056 0.0333 3.7434 1.71025 0.836646 3.02683-2.310426 4.54024-3.46564 12.75186-9.73372 33.71387-10.21371 47.87786-1.09631 5.00404 3.22111 13.70856 11.77614 14.87565 14.62018 0.43539 1.06098 1.92509 0.0272 5.50129-3.81758 17.57834-18.8986 39.93196-22.97945 58.70496-10.71713 13.67502 8.93238 22.65848 23.84048 25.41798 42.18124 1.54589 10.2746 1.44812 67.54235-0.11798 69.10845-1.60327 1.60327-15.99673 1.60327-17.6 0-0.88199-0.88199-1.2-9.45856-1.2-32.36351 0-17.13993-0.45238-33.58743-1.00528-36.55-3.04251-16.30234-16.15123-29.8865-28.8405-29.8865-7.97148 0-18.96859 7.91322-23.62514 17-5.18582 10.11962-5.52908 13.05284-5.52908 47.24724 0 20.06627-0.38369 32.60118-1.03518 33.8185-0.87277 1.63077-2.13829 1.93426-8.06575 1.93426-11.84111 0-10.89907 3.01249-10.89907-34.85368 0-34.74068-0.35854-38.02733-5.18135-47.49573-4.91903-9.657315-15.91728-17.63106-24.31865-17.63106-5.5711 0-13.28174 3.86993-17.8859 8.97685-13.74584 15.26378-11.48921 37.18332-11.61053 54.2916-0.4264 29.45678-0.73344 34.93307-2.00357 35.73469-1.99847 1.2613-14.03877 1.18515-16.25-0.10278-1e-5 -1e-5 -2e-5 1e-5 -3e-5 0zm200 0c-1.63451-0.95201-1.75-4.8083-1.75-58.43441 0-65.76076-1.05492-59.4855 10-59.4855 11.05173 0 10-6.20137 10 58.96376 0 50.38792-0.17968 57.07307-1.57143 58.46481-1.8234 1.8234-13.78648 2.17582-16.67857 0.49133zm42.8987-0.18751c-1.61894-1.18379-1.71311-5.46487-1.42433-64.75 0.30532-62.67872 0.33719-63.55628 2.51803-69.31802 7.13105-18.84017 20.12667-31.87163 37.7576-37.86172 9.51393-3.23234 20.87796-3.86606 21.89301-1.22087 0.33385 0.86998 0.60699 4.67915 0.60699 8.46481 0 7.93643-0.34662 8.30076-9 9.45981-12.31657 1.6497-24.62492 10.91212-30.55497 22.99359l-2.94503 6-0.29267 29.25-0.29266 29.25h20.34266c14.48874 0 20.68799 0.34532 21.54267 1.2 0.70798 0.70798 1.2 4.11111 1.2 8.3s-0.49202 7.59202-1.2 8.3c-0.85452 0.85452-7.04444 1.2-21.5 1.2h-20.3v23.06574c0 13.98746-0.40743 23.82703-1.03518 25-0.8778 1.64018-2.14105 1.93426-8.30887 1.93426-4.29445 0-7.98374-0.5192-9.00725-1.26761zm126.8513-1.07751c-9.49584-3.1357-14.29412-5.73775-21.2401-11.51825-7.41284-6.16903-14.52392-16.50925-17.99246-26.16286-2.68398-7.47-2.68551-7.49116-3.0479-41.93489-0.41872-39.7978-1.14724-37.03888 9.78046-37.03888 10.63655 0 9.90992-2.55987 10.22566 36.02412l0.27434 33.52412 3.38898 6.88091c12.70053 25.78684 46.32741 31.1071 65.75059 10.40269 10.56843-11.26556 11.36043-15.04284 11.36043-54.18106 0-22.19505 0.31956-30.57034 1.2-31.45078 1.80773-1.80774 16.22781-1.59438 17.76922 0.26291 1.98868 2.39621 0.86249 66.24294-1.30182 73.8039-5.43147 18.9747-19.73982 34.23233-38.31631 40.85839-4.40156 1.57-8.94779 2.18045-18.35109 2.46413-11.00225 0.3319-13.33874 0.10012-19.5-1.93444zm102.25 1.26502c-1.63444-0.95198-1.75-4.80259-1.75-58.3146 0-66.14402-0.92363-60.6053 10.1065-60.6053 8.06635 0 9.8935 1.66425 9.8935 9.01143 0 2.74371 0.37817 4.98857 0.84039 4.98857 0.46221 0 4.54516-2.22664 9.07322-4.94808 7.99716-4.80643 14.32018-6.8108 26.79815-8.49489 3.4935-0.4715 4.38883-0.2376 5.25 1.37152 1.45632 2.72116 1.30492 14.35234-0.21176 16.26814-0.6875 0.86842-3.3513 1.79508-5.91955 2.05923-10.23761 1.05296-23.40312 9.58321-29.53729 19.13794-5.8941 9.18078-6.29316 12.10987-6.29316 46.19127 0 27.09578-0.20986 31.48188-1.57143 32.84345-1.8234 1.8234-13.78648 2.17582-16.67857 0.49133zm115.75 0.0602c-10.42678-2.08726-21.95985-8.5207-29.75175-16.59627-9.6774-10.02971-14.15736-18.98981-16.34275-32.6862-1.33184-8.34698-1.33467-10.47476-0.0247-18.61262 3.76984-23.41974 19.76007-41.5445 42.59342-48.27924 8.43894-2.48908 23.15757-2.68709 31.90146-0.42918 12.91938 3.33614 25.38893 11.65231 33.07759 22.06007 8.54474 11.56668 11.04673 19.80446 11.04673 36.37146 0 14.51947-2.2014 22.21321-9.49498 33.18433-11.10192 16.69967-29.17979 26.13635-49.61283 25.89798-5.16571-0.0603-11.19219-0.46989-13.39219-0.9103zm21.06634-19.05728c11.7937-2.14092 22.62595-10.48626 28.16898-21.70182 3.59802-7.28009 3.76468-8.06229 3.76468-17.66917 0-8.8617-0.32371-10.74284-2.734-15.88775-3.81022-8.13316-8.21724-13.35306-14.94468-17.7012-17.45879-11.28416-37.64892-8.58759-52.03399 6.94961-5.24818 5.668535-6.68352 8.016605-8.54735 13.98262-1.23199 3.94354-2.23998 9.54873-2.23998 12.45597 0 14.91903 9.77468 30.01424 23.5 36.29147 9.44552 4.31987 15.19487 5.07226 25.06634 3.28027z" fill="#1a1a1a"/>
   <path d="m177.1601 184.8294c-11.27998-1.81294-22.30644-6.88135-30.72816-14.63465-11.27198-10.37734-18.63493-25.16868-18.90005-40.66699-0.26301-15.37499 4.51106-31.29361 15.29039-42.69359 7.96913-8.42798 17.8781-14.86579 29.14626-17.7665 22.00029-5.66343 46.88831 1.67886 61.39616 19.36939 14.49304 17.67246 17.66621 43.52456 7.63242 64.1265-9.43334 19.36906-29.85643 32.86629-51.47439 32.7872-4.12427-0.0151-8.28794 0.13353-12.36263-0.52136zm48.28454-44.15464c5.80587-16.08218 0.85379-36.02409-13.25861-46.34658-10.61063-7.76113-24.68225-10.93609-37.39925-6.6014-13.14778 4.48153-23.1425 15.54536-27.0931 28.74232-3.79552 12.67894 0.47947 26.58256 8.80746 36.31581 7.81138 9.12947 19.77834 15.39414 31.58562 14.93428 16.10994-0.62743 32.94497-14.82074 37.35788-27.04443z" fill="#ee0864" stroke-width=".999999"/>
  </g>
 </g>
</svg>
