<?xml version="1.0" encoding="utf-8"?>
<!-- Generator: Adobe Illustrator 24.2.2, SVG Export Plug-In . SVG Version: 6.00 Build 0)  -->
<svg version="1.1" id="Layer_1" xmlns="http://www.w3.org/2000/svg" xmlns:xlink="http://www.w3.org/1999/xlink" x="0px" y="0px"
	 viewBox="0 0 511.5 88.6" style="enable-background:new 0 0 511.5 88.6;" xml:space="preserve">
<style type="text/css">
	.st0{fill:none;stroke:#808080;stroke-width:1.9751;stroke-miterlimit:10;}
	.st1{fill:#39B54A;}
	.st2{fill:#FBB03B;}
	.st3{fill:#00FF00;}
	.st4{fill:none;stroke:#000000;stroke-width:1.2959;stroke-miterlimit:10;}
	.st5{fill:#ED1C33;}
</style>
<path class="st0" d="M23.1,17.4C9.7,24.1,1,37,1,50.7c0,19.5,17.5,35.6,36.5,36.6c16.1,0.8,31.9-9.2,37.5-24.4
	c0.5-1.5,5.5-15.8-2-29.1C64.5,18.8,44,11.3,23.1,17.4z"/>
<path class="st1" d="M29.7,34.9C35.8,45.9,41.9,57,48,68c9.4-11.3,23.4-25,42.9-36.8c30.6-18.5,58.8-22.3,67.4-23.3
	c9.6-1.1,25-2.6,43.9,1.2c26.1,5.4,31.6,15.5,61,29.3c12.8,6,41.4,19.1,78.9,20.8c14.3,0.7,37.7,1.5,64.1-9.9
	c14-6,24.4-13.6,31.2-19.3c-4.9-8.3-9.8-16.6-14.8-24.9c-4.1,5.6-10.8,13.8-21.2,21C378.3,42.4,354,43,347.1,43
	c-13.6,0.1-27.1-4-54.3-12.2c-8.6-2.6-16.4-5.6-31.5-10c-0.6-0.2-12.8-3.6-25.3-6.6c-39.5-9.4-64.9-15.5-97.2-14.1
	C112.2,1.3,92.1,6.9,84,9.4C60.3,16.7,42,26.9,29.7,34.9z"/>
<ellipse class="st2" cx="459.2" cy="10.2" rx="7.2" ry="7.2"/>
<path class="st3" d="M76.1,53.3c0,0,0.7,0,1.5,0s1.5,0,1.5,0s-0.7,0-1.5,0S76.1,53.3,76.1,53.3z"/>
<path class="st4" d="M7,30.8"/>
<path class="st5" d="M33.7,44.1v20.7H41v1.9H18.5v-1.9h7.2V19.3h-7.2v-1.9h23.3c5.3,0,9.2,1.3,11.9,3.8s4,5.7,4,9.4
	c0,3.8-1.3,7-4,9.6c-2.7,2.6-7.2,3.9-13.4,3.9H33.7z M33.7,19.3v22.9h4.4c2.3,0,4.2-0.2,5.7-0.6c1.5-0.4,2.8-1.5,3.9-3.3
	c1.1-1.8,1.6-4.6,1.6-8.3c0-3.3-0.5-5.7-1.4-7.3c-1-1.6-2.1-2.5-3.4-2.9c-1.3-0.4-2.9-0.5-4.9-0.5H33.7z"/>
<path class="st5" d="M66.7,64.8V19.3h-4.8v-1.9h4.6c3.1,0,5.4-0.2,6.8-0.6v47.9H78v1.9H61.8v-1.9H66.7z"/>
<path class="st5" d="M99.6,50.2v-3.7c0-3.1-0.2-5.1-0.7-6c-0.5-1-1.7-1.4-3.7-1.4c-3.6,0-5.5,0.8-5.5,2.3c0,0.4,0.2,0.9,0.5,1.5
	c0.3,0.5,0.5,1.1,0.5,1.9c0,1-0.3,1.8-0.9,2.3s-1.3,0.8-2.1,0.8c-1,0-1.8-0.3-2.3-1c-0.5-0.7-0.8-1.5-0.8-2.4c0-2,1.1-3.6,3.2-4.9
	c2.1-1.3,5-2,8.8-2c3,0,5.2,0.4,6.6,1.1c1.4,0.8,2.3,1.7,2.6,2.8c0.3,1.1,0.5,2.7,0.5,4.8v13.5c0,2,0.1,3.2,0.4,3.7
	c0.3,0.5,0.7,0.7,1.2,0.7c0.8,0,1.6-0.6,2.4-1.8h0.8c-0.6,3.6-2.5,5.4-5.7,5.4c-3.1,0-5-2-5.6-5.9c-2.6,3.9-5.7,5.9-9.2,5.9
	c-2.3,0-4.2-0.7-5.6-2.1c-1.4-1.4-2.1-3.1-2.1-5.1C82.7,54.2,88.3,50.8,99.6,50.2z M99.6,55.9v-4c-4.2,0.2-6.9,0.9-8.2,2
	c-1.3,1.2-2,2.9-2,5.2c0,1.6,0.4,2.9,1.2,3.8c0.8,0.9,1.7,1.4,2.8,1.4c1.3,0,2.5-0.5,3.6-1.5c1.1-1,1.8-1.9,2.1-2.9
	C99.4,58.9,99.6,57.6,99.6,55.9z"/>
<path class="st5" d="M117,49.3V37.8h22.6v1.6L123.4,65h4.6c2.8,0,5-0.7,6.6-2.1c1.6-1.4,2.9-4.3,3.7-8.6h1.3v12.3h-23.7v-1.9
	l16.2-25.3h-4.6c-1.5,0-2.8,0.2-3.8,0.5c-1.1,0.3-2.1,1.2-3.1,2.6c-1,1.4-1.7,3.7-2.2,6.7H117z"/>
<path class="st5" d="M163,50.2v-3.7c0-3.1-0.2-5.1-0.7-6c-0.5-1-1.7-1.4-3.7-1.4c-3.6,0-5.5,0.8-5.5,2.3c0,0.4,0.2,0.9,0.5,1.5
	c0.3,0.5,0.5,1.1,0.5,1.9c0,1-0.3,1.8-0.9,2.3s-1.3,0.8-2.1,0.8c-1,0-1.8-0.3-2.3-1c-0.5-0.7-0.8-1.5-0.8-2.4c0-2,1.1-3.6,3.2-4.9
	c2.1-1.3,5-2,8.8-2c3,0,5.2,0.4,6.6,1.1c1.4,0.8,2.3,1.7,2.6,2.8c0.3,1.1,0.5,2.7,0.5,4.8v13.5c0,2,0.1,3.2,0.4,3.7
	c0.3,0.5,0.7,0.7,1.2,0.7c0.8,0,1.6-0.6,2.4-1.8h0.8c-0.6,3.6-2.5,5.4-5.7,5.4c-3.1,0-5-2-5.6-5.9c-2.6,3.9-5.7,5.9-9.2,5.9
	c-2.3,0-4.2-0.7-5.6-2.1c-1.4-1.4-2.1-3.1-2.1-5.1C146,54.2,151.7,50.8,163,50.2z M163,55.9v-4c-4.2,0.2-6.9,0.9-8.2,2
	c-1.3,1.2-2,2.9-2,5.2c0,1.6,0.4,2.9,1.2,3.8c0.8,0.9,1.7,1.4,2.8,1.4c1.3,0,2.5-0.5,3.6-1.5c1.1-1,1.8-1.9,2.1-2.9
	C162.8,58.9,163,57.6,163,55.9z"/>
<path class="st5" d="M196.4,17.4h38.6l1.2,16.7h-1.7c-1.1-5.6-2.5-9.5-4.2-11.6c-1.7-2.2-4-3.2-6.9-3.2h-3.7v45.5h8.1v1.9h-24.2
	v-1.9h8.1V19.3H208c-2.8,0-5.1,1.1-6.9,3.2c-1.7,2.2-3.1,6-4.2,11.6h-1.7L196.4,17.4z"/>
<path class="st5" d="M265.9,37.8v27h4.6v1.9h-4.6c-3.5,0-5.7,0.1-6.6,0.4v-6.8h-0.1c-2,4.6-5.2,6.8-9.5,6.8c-2.5,0-4.5-0.7-6-2.1
	c-1.5-1.4-2.3-4.5-2.3-9.1V39.7h-4.9v-1.9h11.5v19.4c0,3,0.2,5.1,0.5,6.3s1.2,1.7,2.6,1.7c2.1,0,4-1.2,5.7-3.6s2.6-6,2.6-10.9V39.7
	h-5.4v-1.9H265.9z"/>
<path class="st5" d="M279.1,64.8V39.7h-4.8v-1.9h3.1c3,0,5.8-0.2,8.3-0.6v7.2h0.1c2.3-5,5.6-7.5,9.8-7.5c2,0,3.6,0.6,4.9,1.7
	c1.3,1.1,2.1,2.4,2.6,3.9c0.5,1.5,0.7,3.8,0.7,6.9v15.4h5.3v1.9h-16.3v-1.9h4.5V46.5c0-2.8-0.2-4.8-0.5-5.8
	c-0.3-1.1-1.2-1.6-2.5-1.6c-2.2,0-4.1,1.2-5.9,3.7c-1.7,2.4-2.6,5.7-2.6,9.8v12.3h4.4v1.9h-15.8v-1.9H279.1z"/>
<path class="st5" d="M324.7,37.3v26.5c0,4.8-0.3,8.7-1,11.6s-1.9,5.5-3.7,7.5c-1.8,2-3.8,3-6.1,3c-1.7,0-3.1-0.5-4.2-1.4
	s-1.7-2.1-1.7-3.4c0-0.9,0.3-1.6,0.9-2.2c0.6-0.6,1.3-0.9,2.2-0.9c0.8,0,1.5,0.3,2,0.8c0.5,0.5,0.7,1.1,0.7,1.7
	c0,0.4-0.2,0.9-0.5,1.6c-0.3,0.7-0.5,1.1-0.5,1.4c0,0.6,0.4,1,1.2,1c1.6,0,2.6-0.9,3.2-2.8c0.6-1.9,0.8-5.7,0.8-11.5V39.7h-6.1v-1.9
	h6C320.7,37.8,322.9,37.6,324.7,37.3z M317.7,23.1c0-1.1,0.4-2,1.1-2.8c0.7-0.8,1.6-1.2,2.6-1.2c1,0,1.8,0.4,2.6,1.2
	c0.7,0.8,1.1,1.7,1.1,2.8c0,1.2-0.4,2.1-1.1,2.9c-0.7,0.8-1.6,1.1-2.6,1.1c-1,0-1.9-0.4-2.6-1.2C318,25.2,317.7,24.3,317.7,23.1z"/>
<path class="st5" d="M362.4,37.8v27h4.6v1.9h-4.6c-3.5,0-5.7,0.1-6.6,0.4v-6.8h-0.1c-2,4.6-5.2,6.8-9.5,6.8c-2.5,0-4.5-0.7-6-2.1
	c-1.5-1.4-2.3-4.5-2.3-9.1V39.7h-4.9v-1.9h11.5v19.4c0,3,0.2,5.1,0.5,6.3s1.2,1.7,2.6,1.7c2.1,0,4-1.2,5.7-3.6
	c1.8-2.4,2.6-6,2.6-10.9V39.7h-5.4v-1.9H362.4z"/>
<path class="st5" d="M375.6,64.8V39.7h-4.8v-1.9h3.1c3,0,5.8-0.2,8.3-0.6v7.2h0.1c2.3-5,5.6-7.5,9.8-7.5c2,0,3.6,0.6,4.9,1.7
	c1.3,1.1,2.1,2.4,2.6,3.9c0.5,1.5,0.7,3.8,0.7,6.9v15.4h5.3v1.9h-16.3v-1.9h4.5V46.5c0-2.8-0.2-4.8-0.5-5.8
	c-0.3-1.1-1.2-1.6-2.5-1.6c-2.2,0-4.1,1.2-5.9,3.7c-1.7,2.4-2.6,5.7-2.6,9.8v12.3h4.4v1.9h-15.8v-1.9H375.6z"/>
<path class="st5" d="M431.6,41.6c1.3,2,2,4,2,6c0,3.4-1.2,5.9-3.7,7.6c-2.5,1.7-4.5,2.6-6.1,2.6l-1.7,0.1c-0.8,0-1.9-0.1-3.2-0.2
	s-2.1-0.2-2.2-0.2c-0.9,0-1.9,0.4-3.1,1.3c-1.2,0.9-1.8,1.8-1.8,2.8c0,0.9,0.3,1.5,0.9,1.9c0.6,0.4,2.1,0.7,4.6,0.7l11.5-0.5
	c2.4,0,4.4,0.8,5.9,2.5c1.5,1.7,2.3,4,2.3,7.1c0,3.6-1.4,6.6-4.1,9.1s-6.5,3.7-11.3,3.7c-3.7,0-6.7-0.8-8.9-2.4
	c-2.2-1.6-3.3-3.5-3.3-5.7c0-1.3,0.3-2.5,1-3.4c0.7-0.9,2.3-2.1,4.7-3.7c-3.7-1-5.6-3.2-5.6-6.7c0-4.7,2.3-7.4,7-8v-0.1
	c-3.6-1.9-5.4-4.7-5.4-8.4c0-3,1.1-5.6,3.3-7.7c2.2-2.1,4.8-3.1,7.9-3.1c3.3,0,6,1.2,8.2,3.7c1.6-2.4,3.4-3.7,5.4-3.7
	c0.8,0,1.4,0.3,2,0.8c0.6,0.6,0.8,1.3,0.8,2.3c0,0.9-0.2,1.5-0.7,2c-0.5,0.5-1,0.8-1.6,0.8c-0.9,0-1.5-0.4-1.9-1.3
	c-0.4-0.9-0.8-1.3-1.1-1.3C433,40.3,432.3,40.7,431.6,41.6z M417.2,70.9c-2.1,1.5-3.2,3.6-3.2,6.5c0,4.6,2.9,6.8,8.6,6.8
	c3.6,0,6.7-0.9,9-2.8s3.6-4,3.6-6.5c0-1.5-0.6-2.6-1.8-3.5s-2.5-1.2-4-1.2c-0.6,0-1.9,0.1-3.9,0.2c-2,0.1-3.6,0.2-4.6,0.3
	L417.2,70.9z M422.3,38.8c-2.2,0-3.5,0.6-4,1.8s-0.8,3.2-0.8,6c0,4.1,0.2,6.7,0.7,7.9c0.5,1.2,1.9,1.8,4.2,1.8
	c2.3,0,3.7-0.6,4.2-1.8c0.5-1.2,0.7-4.1,0.7-8.8c0-2.9-0.4-4.8-1.3-5.6S423.9,38.8,422.3,38.8z"/>
<path class="st5" d="M460.6,50.2v-3.7c0-3.1-0.2-5.1-0.7-6s-1.7-1.4-3.7-1.4c-3.6,0-5.5,0.8-5.5,2.3c0,0.4,0.2,0.9,0.5,1.5
	c0.3,0.5,0.5,1.1,0.5,1.9c0,1-0.3,1.8-0.9,2.3s-1.3,0.8-2.1,0.8c-1,0-1.8-0.3-2.3-1c-0.5-0.7-0.8-1.5-0.8-2.4c0-2,1.1-3.6,3.2-4.9
	c2.1-1.3,5-2,8.8-2c3,0,5.2,0.4,6.6,1.1c1.4,0.8,2.3,1.7,2.6,2.8c0.3,1.1,0.5,2.7,0.5,4.8v13.5c0,2,0.1,3.2,0.4,3.7s0.7,0.7,1.2,0.7
	c0.8,0,1.6-0.6,2.4-1.8h0.8c-0.6,3.6-2.5,5.4-5.7,5.4c-3.1,0-5-2-5.6-5.9c-2.6,3.9-5.7,5.9-9.2,5.9c-2.3,0-4.2-0.7-5.6-2.1
	c-1.4-1.4-2.1-3.1-2.1-5.1C443.6,54.2,449.3,50.8,460.6,50.2z M460.6,55.9v-4c-4.2,0.2-6.9,0.9-8.2,2c-1.3,1.2-2,2.9-2,5.2
	c0,1.6,0.4,2.9,1.2,3.8c0.8,0.9,1.7,1.4,2.8,1.4c1.3,0,2.5-0.5,3.6-1.5c1.1-1,1.8-1.9,2.1-2.9C460.4,58.9,460.6,57.6,460.6,55.9z"/>
<path class="st5" d="M480.8,64.8V39.7h-4.8v-1.9h3.1c3,0,5.8-0.2,8.3-0.6v7.2h0.1c2.3-5,5.6-7.5,9.8-7.5c2,0,3.6,0.6,4.9,1.7
	c1.3,1.1,2.1,2.4,2.6,3.9c0.5,1.5,0.7,3.8,0.7,6.9v15.4h5.3v1.9h-16.3v-1.9h4.5V46.5c0-2.8-0.2-4.8-0.5-5.8
	c-0.3-1.1-1.2-1.6-2.5-1.6c-2.2,0-4.1,1.2-5.9,3.7c-1.7,2.4-2.6,5.7-2.6,9.8v12.3h4.4v1.9h-15.8v-1.9H480.8z"/>
</svg>
